HIERARCHY
ROOT Hips
{
	OFFSET -0.001795 -0.223333 0.028219
	CHANNELS 6 Xposition Yposition Zposition Zrotation Yrotation Xrotation 
	JOINT LeftUpLeg
	{
		OFFSET 0.069520 -0.091406 -0.006815
		CHANNELS 3 Zrotation Yrotation Xrotation
		JOINT LeftLeg
		{
			OFFSET 0.034277 -0.375199 -0.004496
			CHANNELS 3 Zrotation Yrotation Xrotation
			JOINT LeftFoot
			{
				OFFSET -0.013596 -0.397961 -0.043693
				CHANNELS 3 Zrotation Yrotation Xrotation
				JOINT LeftToe
				{
					OFFSET 0.026358 -0.055791 0.119288
					CHANNELS 3 Zrotation Yrotation Xrotation
					End Site
					{
						OFFSET 0.000000 0.000000 0.000000
					}
				}
			}
		}
	}
	JOINT RightUpLeg
	{
		OFFSET -0.067670 -0.090522 -0.004320
		CHANNELS 3 Zrotation Yrotation Xrotation
		JOINT RightLeg
		{
			OFFSET -0.038290 -0.382569 -0.008850
			CHANNELS 3 Zrotation Yrotation Xrotation
			JOINT RightFoot
			{
				OFFSET 0.015774 -0.398415 -0.042312
				CHANNELS 3 Zrotation Yrotation Xrotation
				JOINT RightToe
				{
					OFFSET -0.025372 -0.048144 0.123348
					CHANNELS 3 Zrotation Yrotation Xrotation
					End Site
					{
						OFFSET 0.000000 0.000000 0.000000
					}
				}
			}
		}
	}
	JOINT Spine
	{
		OFFSET -0.002533 0.108963 -0.026696
		CHANNELS 3 Zrotation Yrotation Xrotation
		JOINT Spine1
		{
			OFFSET 0.005487 0.135180 0.001092
			CHANNELS 3 Zrotation Yrotation Xrotation
			JOINT Spine2
			{
				OFFSET 0.001457 0.052922 0.025425
				CHANNELS 3 Zrotation Yrotation Xrotation
				JOINT Neck
				{
					OFFSET -0.002778 0.213870 -0.042857
					CHANNELS 3 Zrotation Yrotation Xrotation
					JOINT Head
					{
						OFFSET 0.005152 0.064970 0.051349
						CHANNELS 3 Zrotation Yrotation Xrotation
						End Site
						{
							OFFSET 0.000000 0.000000 0.000000
						}
					}
				}
				JOINT LeftShoulder
				{
					OFFSET 0.078845 0.121749 -0.034090
					CHANNELS 3 Zrotation Yrotation Xrotation
					JOINT LeftArm
					{
						OFFSET 0.090977 0.030469 -0.008868
						CHANNELS 3 Zrotation Yrotation Xrotation
						JOINT LeftForeArm
						{
							OFFSET 0.259612 -0.012772 -0.027456
							CHANNELS 3 Zrotation Yrotation Xrotation
							JOINT LeftHand
							{
								OFFSET 0.249234 0.008986 -0.001171
								CHANNELS 3 Zrotation Yrotation Xrotation
								End Site
								{
									OFFSET 0.000000 0.000000 0.000000
								}
							}
						}
					}
				}
				JOINT RightShoulder
				{
					OFFSET -0.081759 0.118833 -0.038615
					CHANNELS 3 Zrotation Yrotation Xrotation
					JOINT RightArm
					{
						OFFSET -0.096012 0.032551 -0.009143
						CHANNELS 3 Zrotation Yrotation Xrotation
						JOINT RightForeArm
						{
							OFFSET -0.253742 -0.013329 -0.021401
							CHANNELS 3 Zrotation Yrotation Xrotation
							JOINT RightHand
							{
								OFFSET -0.255298 0.007772 -0.005559
								CHANNELS 3 Zrotation Yrotation Xrotation
								End Site
								{
									OFFSET 0.000000 0.000000 0.000000
								}
							}
						}
					}
				}
			}
		}
	}
}
MOTION
Frames: 7
Frame Time: 0.050000
-0.028657 0.922841 -0.023739 4.524006 -7.251404 -0.462109 12.857739 0.153524 0.443250 -9.653364 1.165156 -1.879469 -0.229526 4.589448 16.296179 0.000000 0.000000 0.000000 -15.424039 0.513031 -5.759608 8.553016 -0.978897 8.969129 -5.896366 -15.531654 5.660691 0.000000 0.000000 0.000000 10.086689 -2.758452 24.709170 13.202097 -2.831573 -22.866355 8.726536 2.800870 17.564011 -0.156650 1.274916 -21.708972 0.000000 0.000000 0.000000 -33.539088 -5.367882 1.916890 -46.067631 0.452898 -7.126298 -26.110897 -33.370817 9.712225 0.000000 0.000000 0.000000 19.371984 13.935235 5.634186 30.665271 6.431569 -2.224638 -15.388091 44.708537 -4.767584 0.000000 0.000000 0.000000 
-0.031347 0.922975 -0.023876 4.603223 -7.108749 -0.400440 12.822113 0.147577 0.258880 -9.422765 1.140549 -1.737021 -0.315742 4.522358 16.497401 0.000000 0.000000 0.000000 -15.322249 0.513675 -5.592019 8.560994 -0.977035 8.634638 -5.979852 -15.667804 5.516297 0.000000 0.000000 0.000000 10.221236 -2.799131 24.718480 13.253165 -2.856697 -22.763509 8.468030 2.697542 17.601414 -0.530136 1.513262 -22.047618 0.000000 0.000000 0.000000 -33.286465 -5.194564 1.802309 -46.234588 0.343046 -7.112762 -26.927431 -33.402355 9.999275 0.000000 0.000000 0.000000 19.551435 13.787971 5.564560 30.373387 5.791057 -2.342953 -15.083083 44.909981 -4.675857 0.000000 0.000000 0.000000 
-0.033817 0.922989 -0.024289 4.564125 -6.939443 -0.447907 13.028674 0.145158 0.323398 -9.402907 1.128769 -1.836176 -0.448621 4.397722 16.701862 0.000000 0.000000 0.000000 -15.098447 0.512458 -5.246526 8.563852 -0.972844 8.198821 -6.056923 -15.789446 5.373755 0.000000 0.000000 0.000000 10.420631 -2.842638 24.631638 12.901885 -2.782174 -22.695256 8.484873 2.353928 17.908228 -0.574949 1.521699 -22.523251 0.000000 0.000000 0.000000 -33.236501 -5.185151 1.928632 -46.632858 0.301712 -7.220695 -27.378246 -33.561839 10.239787 0.000000 0.000000 0.000000 19.268709 13.419563 5.296433 30.528366 5.352606 -2.453438 -15.500037 45.294931 -4.917340 0.000000 0.000000 0.000000 
-0.035953 0.923146 -0.025095 4.434629 -6.788217 -0.288256 13.299447 0.141444 0.125758 -9.364278 1.116118 -1.898742 -0.546807 4.325507 16.921586 0.000000 0.000000 0.000000 -14.787600 0.507547 -5.234804 8.555113 -0.969268 7.908695 -6.132970 -15.939007 5.363506 0.000000 0.000000 0.000000 10.506152 -2.877611 24.608027 12.926011 -2.832168 -22.380159 8.195279 2.357236 17.798674 -0.481976 1.491431 -22.739559 0.000000 0.000000 0.000000 -33.361162 -5.249119 1.916075 -46.945795 0.316304 -7.244624 -28.125245 -33.907223 10.601122 0.000000 0.000000 0.000000 19.341188 13.218581 5.219856 29.939106 5.129429 -2.456301 -17.143497 45.358671 -5.590335 0.000000 0.000000 0.000000 
-0.037586 0.923244 -0.026210 4.269395 -6.580094 -0.247311 13.519457 0.134840 0.140967 -9.219587 1.080605 -2.164460 -0.672532 4.209673 17.089027 0.000000 0.000000 0.000000 -14.416763 0.499996 -5.040625 8.457256 -0.951630 7.514953 -6.214903 -16.099864 5.369694 0.000000 0.000000 0.000000 10.588614 -2.894315 24.420714 12.771359 -2.859007 -21.947202 8.156301 2.170247 17.799965 -0.682955 1.603635 -22.867474 0.000000 0.000000 0.000000 -33.409879 -5.386590 2.046926 -47.704432 0.063319 -7.272563 -28.727693 -34.063180 10.882373 0.000000 0.000000 0.000000 19.099500 13.260306 5.218245 29.349515 5.304629 -2.374066 -19.515368 44.534171 -6.433021 0.000000 0.000000 0.000000 
-0.038670 0.923620 -0.027492 4.137365 -6.625138 -0.191697 13.518961 0.129135 0.402150 -8.849851 1.010303 -2.815131 -0.683009 4.254878 17.350582 0.000000 0.000000 0.000000 -14.092299 0.501539 -4.979156 8.289779 -0.917338 7.163477 -6.184986 -16.055614 5.465682 0.000000 0.000000 0.000000 10.536843 -2.903369 24.600740 12.897857 -2.937552 -21.635530 7.897174 2.359442 17.639263 -0.646541 1.627653 -23.207344 0.000000 0.000000 0.000000 -33.862244 -5.726414 2.188137 -48.226287 0.200931 -7.359387 -29.034513 -34.221286 11.031247 0.000000 0.000000 0.000000 18.843283 13.437994 5.353263 28.514132 5.789328 -2.221260 -21.488114 43.199918 -6.960592 0.000000 0.000000 0.000000 
-0.039412 0.923912 -0.028728 3.953195 -6.605746 -0.123277 13.537118 0.124789 0.456401 -8.440526 0.951905 -3.143735 -0.692254 4.276358 17.481390 0.000000 0.000000 0.000000 -13.779044 0.496749 -5.084091 8.205206 -0.904781 7.126330 -6.183454 -16.074274 5.586879 0.000000 0.000000 0.000000 10.424525 -2.902214 24.755380 12.749340 -2.902969 -21.604198 7.779658 2.269720 17.624313 -0.253885 1.402957 -23.511736 0.000000 0.000000 0.000000 -34.242594 -5.626064 2.143115 -48.674226 -0.057290 -7.339320 -29.178271 -33.570629 10.873979 0.000000 0.000000 0.000000 18.689105 13.635023 5.437704 27.636390 6.352866 -2.052001 -22.660101 41.946249 -7.184432 0.000000 0.000000 0.000000 
